<svg xmlns="http://www.w3.org/2000/svg" width="1200" height="400" viewBox="0 0 1200 400" role="img" aria-labelledby="title desc">
<title id="title">Hafid Idrissi — Software Engineer</title>
<desc id="desc">From interface to infrastructure. Full-stack products, cloud architecture and embedded systems.</desc>
<rect width="1200" height="400" rx="12" fill="#f6f5f0"/>
<g transform="translate(0 0)" font-family="Arial, Helvetica, sans-serif">
  <circle cx="61" cy="55" r="4" fill="#b84628"/>
  <text x="77" y="60" fill="#59635b" font-size="13" letter-spacing="2">HAFID IDRISSI / SOFTWARE ENGINEER</text>
  <text x="55" y="151" fill="#202b27" font-size="59" letter-spacing="-2.4">From interface</text>
  <text x="55" y="219" fill="#b84628" font-size="59" letter-spacing="-2.4">to infrastructure.</text>
  <text x="58" y="266" fill="#59635b" font-size="16">Full-stack products. Cloud architecture. Embedded systems.</text>
  <line x1="58" y1="312" x2="1142" y2="312" stroke="#d9ddd3"/>
  <text x="58" y="350" fill="#202b27" font-size="13">HAGER GROUP <tspan fill="#59635b">/ Cloud &amp; IoT internship</tspan></text>
  <text x="465" y="350" fill="#202b27" font-size="13">MIRION <tspan fill="#59635b">/ Embedded R&amp;D internship</tspan></text>
  <text x="888" y="350" fill="#202b27" font-size="13">JUNIA <tspan fill="#59635b">/ Engineering degree</tspan></text>
  <g transform="translate(805 65)">
    <path d="M156 41v175" stroke="#d9ddd3" stroke-width="2"/>
    <rect x="0" y="0" width="312" height="52" rx="6" fill="#f6f5f0" stroke="#d9ddd3"/>
    <text x="20" y="32" fill="#59635b" font-size="11">01</text><text x="53" y="32" fill="#202b27" font-size="15">Product &amp; interface</text>
    <rect x="0" y="76" width="312" height="52" rx="6" fill="#ecefe7" stroke="#d9ddd3"/>
    <text x="20" y="108" fill="#59635b" font-size="11">02</text><text x="53" y="108" fill="#202b27" font-size="15">Application &amp; data</text>
    <rect x="0" y="152" width="312" height="52" rx="6" fill="#f6f5f0" stroke="#b84628"/>
    <text x="20" y="184" fill="#b84628" font-size="11">03</text><text x="53" y="184" fill="#202b27" font-size="15">Infrastructure &amp; delivery</text>
  </g>
</g>

</svg>